<svg xmlns="http://www.w3.org/2000/svg" width="108.485" height="72.306" viewBox="0 0 108.485 72.306">
  <g id="waves_" data-name="waves " transform="translate(-19.528 -23.165)">
    <g id="Component_298_1" data-name="Component 298 – 1" transform="translate(-0.267 0.063)">
      <path id="water" d="M105.884,64.753a21.757,21.757,0,0,1-10.9-4.314,7.3,7.3,0,0,0-9.08,0c-7.139,5.727-20.193,5.727-27.446-.287a6.99,6.99,0,0,0-8.8.338c-7.158,5.669-20.137,5.651-27.351-.32a7.1,7.1,0,0,0-8.872.377,21.358,21.358,0,0,1-10.87,4.219A2.926,2.926,0,0,0,0,67.729v6.065a2.973,2.973,0,0,0,3.145,3.012A33.855,33.855,0,0,0,18.1,71.93a36.118,36.118,0,0,0,36.167,0,36.118,36.118,0,0,0,36.167,0,34.825,34.825,0,0,0,14.9,4.86,2.973,2.973,0,0,0,3.145-3.012V67.827a3.023,3.023,0,0,0-2.6-3.071Zm0-27.126a21.757,21.757,0,0,1-10.9-4.314,7.3,7.3,0,0,0-9.08,0c-7.139,5.727-20.193,5.727-27.446-.287a6.99,6.99,0,0,0-8.8.338c-7.158,5.669-20.137,5.651-27.351-.32a7.1,7.1,0,0,0-8.872.377,21.358,21.358,0,0,1-10.87,4.219A2.926,2.926,0,0,0,0,40.6V46.67a2.973,2.973,0,0,0,3.145,3.012A33.855,33.855,0,0,0,18.1,44.805a36.118,36.118,0,0,0,36.167,0,36.118,36.118,0,0,0,36.167,0,34.825,34.825,0,0,0,14.9,4.86,2.973,2.973,0,0,0,3.145-3.012V40.7a3.023,3.023,0,0,0-2.6-3.075Zm0-27.126a21.929,21.929,0,0,1-10.9-4.314,7.3,7.3,0,0,0-9.08,0c-7.139,5.727-20.193,5.727-27.446-.287a6.99,6.99,0,0,0-8.8.338C42.5,11.915,29.519,11.9,22.3,5.932a7.1,7.1,0,0,0-8.872.377,21.358,21.358,0,0,1-10.87,4.212A2.926,2.926,0,0,0,0,13.478v6.065a2.973,2.973,0,0,0,3.145,3.012A33.855,33.855,0,0,0,18.1,17.679a36.118,36.118,0,0,0,36.167,0,36.118,36.118,0,0,0,36.167,0,34.825,34.825,0,0,0,14.9,4.86,2.973,2.973,0,0,0,3.145-3.012V13.576a3.023,3.023,0,0,0-2.6-3.071Z" transform="translate(19.796 18.596)" fill="#fff"/>
    </g>
  </g>
</svg>
